<?xml version="1.0" encoding="UTF-8" standalone="no"?>
<svg height="456.75201" viewBox="0 0 759.91199 456.75201" width="759.91199" xmlns="http://www.w3.org/2000/svg" xmlns:xlink="http://www.w3.org/1999/xlink">
<metadata>
<rdf:RDF xmlns:rdf="http://www.w3.org/1999/02/22-rdf-syntax-ns#" xmlns:cc="http://creativecommons.org/ns#" xmlns:dc="http://purl.org/dc/elements/1.1/" xmlns:xmpRights="http://ns.adobe.com/xap/1.0/rights/">
<rdf:Description>
<cc:attributionName>John Neffenger</cc:attributionName>
<cc:license rdf:resource="https://creativecommons.org/licenses/by-sa/4.0/"/>
<dc:title>AWT to JavaFX Image Conversion Benchmarks</dc:title>
<xmpRights:Marked>True</xmpRights:Marked>
<xmpRights:UsageTerms>This work is licensed under the Creative Commons Attribution-ShareAlike 4.0 International License.</xmpRights:UsageTerms>
<xmpRights:WebStatement rdf:resource="https://github.com/jgneff/tofximage"/>
</rdf:Description>
</rdf:RDF>
</metadata>
<clipPath id="a">
<path d="m0 21.00117h431.99765v-252.00141h-431.99765z"/>
</clipPath>
<g transform="matrix(1.3333333 0 0 -1.3333333 171.6573290419 89.8160091734)">
<path d="m0 21.00117v-4.25245m50.82324 4.25245v-4.25245m50.82326 4.25245v-4.25245m50.82326 4.25245v-4.25245m50.82325 4.25245v-4.25245m50.82325 4.25245v-4.25245m50.82325 4.25245v-4.25245m50.82326 4.25245v-4.25245m50.82326 4.25245v-4.25245m-406.58603-247.74896v4.25247m50.82324-4.25247v4.25247m50.82326-4.25247v4.25247m50.82326-4.25247v4.25247m50.82325-4.25247v4.25247m50.82325-4.25247v4.25247m50.82325-4.25247v4.25247m50.82326-4.25247v4.25247m50.82326-4.25247v4.25247" fill="none" stroke="#808080" stroke-miterlimit="10" stroke-width=".19925"/>
<path d="m-4.25212 0h4.25212m-4.25212-16.15376h4.25212m-4.25212-16.15378h4.25212m-4.25212-16.15378h4.25212m-4.25212-16.15376h4.25212m-4.25212-16.15378h4.25212m-4.25212-16.15378h4.25212m-4.25212-16.15378h4.25212m-4.25212-16.15376h4.25212m-4.25212-16.15378h4.25212m-4.25212-16.15377h4.25212m-4.25212-16.15378h4.25212m-4.25212-16.15377h4.25212m-4.25212-16.15377h4.25212" fill="none" stroke="#808080" stroke-miterlimit="10" stroke-width=".19925"/>
<path d="m0 21.00117v-252.00141h431.99765v252.00141z" fill="none" stroke="#000" stroke-miterlimit="10" stroke-width=".3985"/>
<g font-family="Arimo,Liberation Sans,Arial,sans-serif" font-size="10.90909">
<text transform="matrix(1 0 0 -1 -3.034 -242.799)"><tspan x="0" y="0">0</tspan></text>
<text transform="matrix(1 0 0 -1 41.722 -242.799)"><tspan x="0 6.067636 12.135272" y="0">100</tspan></text>
<text transform="matrix(1 0 0 -1 92.544 -242.799)"><tspan x="0 6.067636 12.135272" y="0">200</tspan></text>
<text transform="matrix(1 0 0 -1 143.367 -242.799)"><tspan x="0 6.067636 12.135272" y="0">300</tspan></text>
<text transform="matrix(1 0 0 -1 194.19 -242.799)"><tspan x="0 6.067636 12.135272" y="0">400</tspan></text>
<text transform="matrix(1 0 0 -1 245.012 -242.799)"><tspan x="0 6.067636 12.135272" y="0">500</tspan></text>
<text transform="matrix(1 0 0 -1 295.835 -242.799)"><tspan x="0 6.067636 12.135272" y="0">600</tspan></text>
<text transform="matrix(1 0 0 -1 346.657 -242.799)"><tspan x="0 6.067636 12.135272" y="0">700</tspan></text>
<text transform="matrix(1 0 0 -1 397.48 -242.799)"><tspan x="0 6.067636 12.135272" y="0">800</tspan></text>
<text transform="matrix(1 0 0 -1 -86.051 -3.899)"><tspan x="0 3.030545 9.098181 12.730908 20.007271 26.074907 31.529451 37.597088 46.082176 49.714905 55.782539 61.850178 65.482903 71.550537" y="0">forEachOrdered</tspan></text>
<text transform="matrix(1 0 0 -1 -82.413 -20.053)"><tspan x="0 3.030545 9.098181 12.730908 20.007271 26.074907 31.529451 37.597088 44.873451 50.941086 54.573814 60.641449 63.065449 65.489449 71.557083" y="0">forEachParallel</tspan></text>
<text transform="matrix(1 0 0 -1 -85.455 -35.128)"><tspan x="0 3.030545 9.098181 12.730908 18.798544 24.86618 30.933815 37.00145 42.455997 50.334541 56.402176 61.856724 64.887268 70.954903" y="0">forLoopsNested</tspan></text>
<text transform="matrix(1 0 0 -1 -109.1 -51.281)"><tspan x="0 6.067636 12.135272 15.165817 22.442181 26.074907 32.142544 38.210178 45.486542 49.11927 55.186905 58.217449 64.285088 67.315628 73.38327 80.65963 86.114174 89.144722 95.212357" y="0">putArgbPreIntoBytes</tspan></text>
<text transform="matrix(1 0 0 -1 -99.4 -67.435)"><tspan x="0 6.067636 12.135272 15.165817 22.442181 26.074907 32.142544 38.210178 45.486542 49.11927 55.186905 58.217449 64.285088 67.315628 73.38327 76.413811 82.481445 85.511993" y="0">putArgbPreIntoInts</tspan></text>
<text transform="matrix(1 0 0 -1 -95.144 -83.389)"><tspan x="0 6.067636 12.135272 15.165817 22.442181 26.074907 29.707634 35.775269 41.229816 44.260361 50.327995 53.35854 59.426178 66.702538 72.157082 75.18763 81.255264" y="0">putArrayIntoBytes</tspan></text>
<text transform="matrix(1 0 0 -1 -87.868 -99.742)"><tspan x="0 6.067636 12.135272 15.165817 23.044361 25.468361 29.101088 35.168724 40.623268 43.653816 46.684361 52.751995 55.782539 61.850178 64.880722 70.948357 73.978905" y="0">putDirectIntoInts</tspan></text>
<text transform="matrix(1 0 0 -1 -81.806 -115.896)"><tspan x="0 5.454545 11.522181 14.552726 21.829088 25.461817 31.529451 37.597088 44.873451 50.327995 57.604359 61.237087 67.304718" y="0">setArgbAsArgb</tspan></text>
<text transform="matrix(1 0 0 -1 -98.782 -132.049)"><tspan x="0 5.454545 11.522181 14.552726 21.829088 25.461817 31.529451 37.597088 44.873451 50.327995 57.604359 61.237087 67.304718 73.37236 80.64872 84.281448" y="0">setArgbAsArgbPre</tspan></text>
<text transform="matrix(1 0 0 -1 -98.782 -148.203)"><tspan x="0 5.454545 11.522181 14.552726 21.829088 25.461817 31.529451 37.597088 44.873451 48.506176 54.573814 61.850178 67.304718 74.581085 78.213814 84.281448" y="0">setArgbPreAsArgb</tspan></text>
<text transform="matrix(1 0 0 -1 -115.758 -164.356)"><tspan x="0 5.454545 11.522181 14.552726 21.829088 25.461817 31.529451 37.597088 44.873451 48.506176 54.573814 61.850178 67.304718 74.581085 78.213814 84.281448 90.349083 97.62545 101.25817" y="0">setArgbPreAsArgbPre</tspan></text>
<text transform="matrix(1 0 0 -1 -84.826 -180.51)"><tspan x="0 5.454545 11.522181 14.552726 21.829088 25.461817 29.094543 35.162178 40.616722 47.893085 53.347633 60.623997 64.256721 70.324356" y="0">setArrayAsArgb</tspan></text>
<text transform="matrix(1 0 0 -1 -101.802 -196.663)"><tspan x="0 5.454545 11.522181 14.552726 21.829088 25.461817 29.094543 35.162178 40.616722 47.893085 53.347633 60.623997 64.256721 70.324356 76.391991 83.668358 87.301086" y="0">setArrayAsArgbPre</tspan></text>
<text transform="matrix(1 0 0 -1 -61.794 -212.617)"><tspan x="0 3.030545 9.098181 15.761454 23.037817 26.068361 35.155632 41.22327 47.290905" y="0">toFXImage</tspan></text>
</g>
<g clip-path="url(#a)" stroke="#000" stroke-miterlimit="10" stroke-width=".3985">
<path d="m0-4.98138h34.36209v9.96277h-34.36209z" fill="#1f78b4"/>
<path d="m34.36209 0h.20329" fill="#1f78b4"/>
<path d="m0 1.99255v-3.9851" fill="none" transform="translate(34.565)"/>
<path d="m34.36209 0h-.20328" fill="#1f78b4"/>
<path d="m0 1.99255v-3.9851" fill="none" transform="matrix(-1 0 0 -1 34.158 -.001)"/>
<path d="m0-21.13515h7.76935v9.96277h-7.76935z" fill="#1f78b4"/>
<path d="m7.76935-16.15376h.14585" fill="#1f78b4"/>
<path d="m0 1.99255v-3.9851" fill="none" transform="translate(7.915 -16.154)"/>
<path d="m7.76935-16.15376h-.14588" fill="#1f78b4"/>
<path d="m0 1.99255v-3.9851" fill="none" transform="matrix(-1 0 0 -1 7.623 -16.153)"/>
<path d="m0-37.28893h36.33658v9.96277h-36.33658z" fill="#1f78b4"/>
<path d="m36.33658-32.30754h1.48201" fill="#1f78b4"/>
<path d="m0 1.99255v-3.9851" fill="none" transform="translate(37.818 -32.307)"/>
<path d="m36.33658-32.30754h-1.48201" fill="#1f78b4"/>
<path d="m0 1.99255v-3.9851" fill="none" transform="matrix(-1 0 0 -1 34.854 -32.308)"/>
<path d="m0-53.4427h145.12833v9.96277h-145.12833z" fill="#1f78b4"/>
<path d="m145.12833-48.46132h.0305" fill="#1f78b4"/>
<path d="m0 1.99255v-3.9851" fill="none" transform="translate(145.157 -48.461)"/>
<path d="m145.12833-48.46132h-.0305" fill="#1f78b4"/>
<path d="m0 1.99255v-3.9851" fill="none" transform="matrix(-1 0 0 -1 145.096 -48.46)"/>
<path d="m0-69.59647h145.09325v9.96277h-145.09325z" fill="#1f78b4"/>
<path d="m145.09325-64.61508h.0325" fill="#1f78b4"/>
<path d="m0 1.99255v-3.9851" fill="none" transform="translate(145.124 -64.614)"/>
<path d="m145.09325-64.61508h-.0325" fill="#1f78b4"/>
<path d="m0 1.99255v-3.9851" fill="none" transform="matrix(-1 0 0 -1 145.059 -64.615)"/>
<path d="m0-85.75024h255.95251v9.96277h-255.95251z" fill="#a6cee3"/>
<path d="m255.95251-80.76886h.24955" fill="#a6cee3"/>
<path d="m0 1.99255v-3.9851" fill="none" transform="translate(256.199 -80.768)"/>
<path d="m255.95251-80.76886h-.24954" fill="#a6cee3"/>
<path d="m0 1.99255v-3.9851" fill="none" transform="matrix(-1 0 0 -1 255.7 -80.769)"/>
<path d="m0-101.90402h267.59306v9.96277h-267.59306z" fill="#a6cee3"/>
<path d="m267.59306-96.92264h.28562" fill="#a6cee3"/>
<path d="m0 1.99255v-3.9851" fill="none" transform="translate(267.875 -96.922)"/>
<path d="m267.59306-96.92264h-.28563" fill="#a6cee3"/>
<path d="m0 1.99255v-3.9851" fill="none" transform="matrix(-1 0 0 -1 267.304 -96.921)"/>
<path d="m0-118.0578h247.47162v9.96277h-247.47162z" fill="#1f78b4"/>
<path d="m247.47162-113.07642h.0473" fill="#1f78b4"/>
<path d="m0 1.99255v-3.9851" fill="none" transform="translate(247.516 -113.075)"/>
<path d="m247.47162-113.07642h-.0473" fill="#1f78b4"/>
<path d="m0 1.99255v-3.9851" fill="none" transform="matrix(-1 0 0 -1 247.421 -113.076)"/>
<path d="m0-134.21156h293.2283v9.96277h-293.2283z" fill="#a6cee3"/>
<path d="m293.2283-129.23018h.2287" fill="#a6cee3"/>
<path d="m0 1.99255v-3.9851" fill="none" transform="translate(293.453 -129.229)"/>
<path d="m293.2283-129.23018h-.2287" fill="#a6cee3"/>
<path d="m0 1.99255v-3.9851" fill="none" transform="matrix(-1 0 0 -1 292.996 -129.228)"/>
<path d="m0-150.36534h124.66283v9.96277h-124.66283z" fill="#a6cee3"/>
<path d="m124.66283-145.38396h.009" fill="#a6cee3"/>
<path d="m0 1.99255v-3.9851" fill="none" transform="translate(124.67 -145.382)"/>
<path d="m124.66283-145.38396h-.009" fill="#a6cee3"/>
<path d="m0 1.99255v-3.9851" fill="none" transform="matrix(-1 0 0 -1 124.653 -145.383)"/>
<path d="m0-166.51912h124.79698v9.96277h-124.79698z" fill="#1f78b4"/>
<path d="m124.79698-161.53773h.0219" fill="#1f78b4"/>
<path d="m0 1.99255v-3.9851" fill="none" transform="translate(124.817 -161.536)"/>
<path d="m124.79698-161.53773h-.0218" fill="#1f78b4"/>
<path d="m0 1.99255v-3.9851" fill="none" transform="matrix(-1 0 0 -1 124.773 -161.535)"/>
<path d="m0-182.6729h145.98267v9.96277h-145.98267z" fill="#1f78b4"/>
<path d="m145.98267-177.69151h.0909" fill="#1f78b4"/>
<path d="m0 1.99255v-3.9851" fill="none" transform="translate(146.072 -177.689)"/>
<path d="m145.98267-177.69151h-.091" fill="#1f78b4"/>
<path d="m0 1.99255v-3.9851" fill="none" transform="matrix(-1 0 0 -1 145.89 -177.69)"/>
<path d="m0-198.82666h164.82742v9.96277h-164.82742z" fill="#a6cee3"/>
<path d="m164.82742-193.84528h.0884" fill="#a6cee3"/>
<path d="m0 1.99255v-3.9851" fill="none" transform="translate(164.914 -193.843)"/>
<path d="m164.82742-193.84528h-.0884" fill="#a6cee3"/>
<path d="m0 1.99255v-3.9851" fill="none" transform="matrix(-1 0 0 -1 164.737 -193.842)"/>
<path d="m0-214.98044h109.36755v9.96277h-109.36755z" fill="#1f78b4"/>
<path d="m109.36755-209.99905h.49654" fill="#1f78b4"/>
<path d="m0 1.99255v-3.9851" fill="none" transform="translate(109.863 -209.997)"/>
<path d="m109.36755-209.99905h-.49652" fill="#1f78b4"/>
<path d="m0 1.99255v-3.9851" fill="none" transform="matrix(-1 0 0 -1 108.87 -209.996)"/>
</g>
</g>
<g font-family="Arimo,Liberation Sans,Arial,sans-serif">
<text font-size="11.95517" transform="matrix(1.3333333 0 0 1.3333333 345.3573246994 436.1306671822)"><tspan x="0 7.302218 13.951683 17.932755 24.58222 31.231686 37.881153 44.530617 51.180084 57.829548 64.46228 68.443352 71.764496 75.745567 82.395035 92.353691 99.003151 108.30428 114.95374 121.60321 128.90782 134.88541 141.53487 147.51245 154.16191 160.81139 167.46085" y="0">Throughput(framespersecond)</tspan></text>
<text font-size="11.95517" transform="matrix(1.3333333 0 0 1.3333333 324.9506585429 28.8626773639)"><tspan x="0 8.634024 15.283489 21.932955 28.58242 31.903566 41.864613 51.163345 57.812813 64.46228 71.11174 77.089325 85.723351 97.020988 103.67046 113.64346 120.29292 130.25397 138.88799 145.53746 152.18692 158.8364 162.15753 172.13054 178.78 185.42947 188.75061 195.40009" y="0">UbuntuOpenJDK13onUbuntu20.04</tspan></text>
<text font-size="10.90909" transform="matrix(1.3333333 0 0 1.3333333 254.7053269657 48.1240102157)"><tspan x="0 6.067636 9.098181 15.165817 24.25527 32.74036 40.618904 49.106178 52.136723 58.204357 61.234905 67.302544 72.75927 80.035629 86.103264 92.170898 101.27126 108.54763 112.18035 118.24799 123.70254 129.77017 135.22472 140.67926 146.7469 153.40144 160.67781 166.74544 170.37817 176.4458 182.51344 188.58107 197.68144 203.13599 212.23634 220.11488 222.53889 225.56944 234.65889 240.72653 249.82689 258.31198 260.73599 271.04507 277.1127 283.17596 291.05453 298.33087" y="0">3.30GHzIntelXeonProcessorE3-1225v5with16GiBofRAM</tspan></text>
</g>
<path d="m322.29805-22.86287h87.89914v31.06396h-87.89914z" fill="none" stroke="#000" stroke-miterlimit="10" stroke-width=".3985" transform="matrix(1.3333333 0 0 -1.3333333 171.6573290419 89.8160091734)"/>
<path d="m0-3.88544h9.56429v2.98883h-9.56429zm0 5.97765h7.17326v2.98883h-7.17326z" fill="#1f78b4" stroke="#000" stroke-miterlimit="10" stroke-width=".3985" transform="matrix(1.3333333 0 0 -1.3333333 605.6333181925 90.4680091571)"/>
<text font-family="Arimo,Liberation Sans,Arial,sans-serif" font-size="10.90909" transform="matrix(1.3333333 0 0 1.3333333 629.7293175901 94.3506757267)"><tspan x="0 7.878545 13.94618 17.578907 21.211634 27.27927 32.733814" y="0">Correct</tspan></text>
<path d="m0-3.88544h9.56429v2.98883h-9.56429zm0 5.97765h7.17326v2.98883h-7.17326z" fill="#a6cee3" stroke="#000" stroke-miterlimit="10" stroke-width=".3985" transform="matrix(1.3333333 0 0 -1.3333333 605.6333181925 108.5213420391)"/>
<text font-family="Arimo,Liberation Sans,Arial,sans-serif" font-size="10.90909" transform="matrix(1.3333333 0 0 1.3333333 629.7293175901 112.5960086039)"><tspan x="0 10.099635 13.732363 19.799999 25.867634 34.957088 41.024723 43.448723 49.516361 55.583996" y="0">Wrongalpha</tspan></text>
</svg>
